# Blender v2.90.0 OBJ File: 'todo.blend'
# www.blender.org
mtllib piedra.mtl
o Circle.004_Circle.025
v 0.357080 0.169687 3.506464
v 0.356145 0.169687 3.506748
v 0.355283 0.169687 3.507209
v 0.354528 0.169687 3.507829
v 0.353908 0.169687 3.508584
v 0.353447 0.169687 3.509446
v 0.353164 0.169687 3.510381
v 0.353068 0.169687 3.511353
v 0.353164 0.169687 3.512326
v 0.353447 0.169687 3.513261
v 0.353908 0.169687 3.514123
v 0.354528 0.169687 3.514878
v 0.355283 0.169687 3.515498
v 0.356145 0.169687 3.515959
v 0.357080 0.169687 3.516243
v 0.358053 0.169687 3.516338
v 0.359025 0.169687 3.516243
v 0.359960 0.169687 3.515959
v 0.360822 0.169687 3.515498
v 0.361578 0.169687 3.514878
v 0.362197 0.169687 3.514123
v 0.362658 0.169687 3.513261
v 0.362942 0.169687 3.512326
v 0.363038 0.169687 3.511353
v 0.362942 0.169687 3.510381
v 0.362658 0.169687 3.509446
v 0.362197 0.169687 3.508584
v 0.361578 0.169687 3.507829
v 0.360822 0.169687 3.507209
v 0.359960 0.169687 3.506748
v 0.359025 0.169687 3.506464
v 0.358053 0.169687 3.506369
v 0.357080 0.173615 3.506464
v 0.356145 0.173615 3.506748
v 0.355283 0.173615 3.507209
v 0.354528 0.173615 3.507829
v 0.353908 0.173615 3.508584
v 0.353447 0.173615 3.509446
v 0.353164 0.173615 3.510381
v 0.353068 0.173615 3.511353
v 0.353164 0.173615 3.512326
v 0.353447 0.173615 3.513261
v 0.353908 0.173615 3.514123
v 0.354528 0.173615 3.514878
v 0.355283 0.173615 3.515498
v 0.356145 0.173615 3.515959
v 0.357080 0.173615 3.516243
v 0.358053 0.173615 3.516338
v 0.359025 0.173615 3.516243
v 0.359960 0.173615 3.515959
v 0.360822 0.173615 3.515498
v 0.361578 0.173615 3.514878
v 0.362198 0.173615 3.514123
v 0.362658 0.173615 3.513261
v 0.362942 0.173615 3.512326
v 0.363038 0.173615 3.511353
v 0.362942 0.173615 3.510381
v 0.362658 0.173615 3.509446
v 0.362198 0.173615 3.508584
v 0.361578 0.173615 3.507829
v 0.360822 0.173615 3.507209
v 0.359960 0.173615 3.506748
v 0.359025 0.173615 3.506464
v 0.358053 0.173615 3.506369
v 0.347479 0.173326 3.511137
v 0.346575 0.173326 3.513255
v 0.346148 0.173326 3.515292
v 0.346217 0.173326 3.517169
v 0.346779 0.173326 3.518815
v 0.347811 0.173326 3.520165
v 0.349274 0.173326 3.521168
v 0.351112 0.173326 3.521786
v 0.353254 0.173326 3.521995
v 0.363491 0.173326 3.521995
v 0.365634 0.173326 3.521786
v 0.367473 0.173326 3.521168
v 0.368936 0.173326 3.520164
v 0.369969 0.173326 3.518813
v 0.370530 0.173326 3.517167
v 0.370599 0.173326 3.515289
v 0.370173 0.173326 3.513252
v 0.369268 0.173326 3.511132
v 0.364150 0.173326 3.501508
v 0.362912 0.173326 3.499599
v 0.361500 0.173326 3.498180
v 0.359968 0.173326 3.497306
v 0.358375 0.173326 3.497011
v 0.356782 0.173326 3.497306
v 0.355250 0.173326 3.498180
v 0.353838 0.173326 3.499599
v 0.352600 0.173326 3.501508
v 0.369268 0.170092 3.511132
v 0.364150 0.170092 3.501508
v 0.363491 0.170092 3.521995
v 0.365634 0.170092 3.521786
v 0.367473 0.170092 3.521168
v 0.368936 0.170092 3.520164
v 0.369969 0.170092 3.518813
v 0.370530 0.170092 3.517167
v 0.370599 0.170092 3.515289
v 0.370173 0.170092 3.513252
v 0.353254 0.170092 3.521995
v 0.351112 0.170092 3.521786
v 0.349274 0.170092 3.521168
v 0.347811 0.170092 3.520165
v 0.346779 0.170092 3.518815
v 0.346217 0.170092 3.517169
v 0.346148 0.170092 3.515292
v 0.346575 0.170092 3.513255
v 0.347479 0.170092 3.511137
v 0.352600 0.170092 3.501508
v 0.353838 0.170092 3.499599
v 0.355250 0.170092 3.498180
v 0.356782 0.170092 3.497306
v 0.358375 0.170092 3.497011
v 0.359968 0.170092 3.497306
v 0.361500 0.170092 3.498180
v 0.362912 0.170092 3.499599
vt 0.000000 0.000000
vt 0.000000 0.000000
vt 0.000000 0.000000
vt 0.000000 0.000000
vt 0.000000 0.000000
vt 0.000000 0.000000
vt 0.000000 0.000000
vt 0.000000 0.000000
vt 0.000000 0.000000
vt 0.000000 0.000000
vt 0.000000 0.000000
vt 0.000000 0.000000
vt 0.000000 0.000000
vt 0.000000 0.000000
vt 0.000000 0.000000
vt 0.000000 0.000000
vt 0.000000 0.000000
vt 0.000000 0.000000
vt 0.000000 0.000000
vt 0.000000 0.000000
vt 0.000000 0.000000
vt 0.000000 0.000000
vt 0.000000 0.000000
vt 0.000000 0.000000
vt 0.000000 0.000000
vt 0.000000 0.000000
vt 0.000000 0.000000
vt 0.000000 0.000000
vt 0.000000 0.000000
vt 0.000000 0.000000
vt 0.000000 0.000000
vt 0.000000 0.000000
vt 0.000000 0.000000
vt 0.000000 0.000000
vt 0.000000 0.000000
vt 0.000000 0.000000
vt 0.000000 0.000000
vt 0.000000 0.000000
vt 0.000000 0.000000
vt 0.000000 0.000000
vt 0.000000 0.000000
vt 0.000000 0.000000
vt 0.000000 0.000000
vt 0.000000 0.000000
vt 0.000000 0.000000
vt 0.000000 0.000000
vt 0.000000 0.000000
vt 0.000000 0.000000
vt 0.000000 0.000000
vt 0.000000 0.000000
vt 0.000000 0.000000
vt 0.000000 0.000000
vt 0.000000 0.000000
vt 0.000000 0.000000
vt 0.000000 0.000000
vt 0.000000 0.000000
vt 0.000000 0.000000
vt 0.000000 0.000000
vt 0.000000 0.000000
vt 0.000000 0.000000
vt 0.000000 0.000000
vt 0.000000 0.000000
vt 0.000000 0.000000
vt 0.000000 0.000000
vt 0.000000 0.000000
vt 0.000000 0.000000
vt 0.000000 0.000000
vt 0.000000 0.000000
vt 0.000000 0.000000
vt 0.000000 0.000000
vt 0.000000 0.000000
vt 0.000000 0.000000
vt 0.000000 0.000000
vt 0.000000 0.000000
vt 0.000000 0.000000
vt 0.000000 0.000000
vt 0.000000 0.000000
vt 0.000000 0.000000
vt 0.000000 0.000000
vt 0.000000 0.000000
vt 0.000000 0.000000
vt 0.000000 0.000000
vt 0.000000 0.000000
vt 0.000000 0.000000
vt 0.000000 0.000000
vt 0.000000 0.000000
vt 0.000000 0.000000
vt 0.000000 0.000000
vt 0.000000 0.000000
vt 0.000000 0.000000
vt 0.000000 0.000000
vt 0.000000 0.000000
vt 0.000000 0.000000
vt 0.000000 0.000000
vt 0.000000 0.000000
vt 0.000000 0.000000
vt 0.000000 0.000000
vt 0.000000 0.000000
vt 0.000000 0.000000
vt 0.000000 0.000000
vt 0.000000 0.000000
vt 0.000000 0.000000
vt 0.000000 0.000000
vt 0.000000 0.000000
vt 0.000000 0.000000
vt 0.000000 0.000000
vt 0.000000 0.000000
vt 0.000000 0.000000
vt 0.000000 0.000000
vt 0.000000 0.000000
vt 0.000000 0.000000
vt 0.000000 0.000000
vt 0.000000 0.000000
vt 0.000000 0.000000
vt 0.000000 0.000000
vt 0.000000 0.000000
vt 0.000000 0.000000
vt 0.000000 0.000000
vn 0.0000 1.0000 -0.0000
vn 0.8829 0.0000 -0.4695
vn 0.8829 0.0000 -0.4696
vn 0.0970 0.0000 0.9953
vn 0.0969 0.0000 0.9953
vn 0.0968 0.0000 0.9953
vn 0.3187 0.0000 0.9478
vn 0.3187 0.0000 0.9479
vn 0.3186 0.0000 0.9479
vn 0.5655 0.0000 0.8247
vn 0.5654 0.0000 0.8248
vn 0.7945 0.0000 0.6073
vn 0.7945 0.0000 0.6072
vn 0.7946 0.0000 0.6072
vn 0.9465 0.0000 0.3228
vn 0.9465 0.0000 0.3227
vn 0.9993 0.0000 0.0367
vn 0.9788 0.0000 -0.2048
vn 0.9788 0.0000 -0.2047
vn 0.9197 0.0000 -0.3927
vn 0.9197 0.0000 -0.3926
vn 0.0000 -1.0000 -0.0000
vn -0.8392 0.0000 -0.5439
vn -0.8392 0.0000 -0.5438
vn -0.7088 0.0000 -0.7054
vn -0.7089 0.0000 -0.7053
vn -0.4956 0.0000 -0.8686
vn -0.4955 0.0000 -0.8686
vn -0.4954 0.0000 -0.8687
vn -0.1822 0.0000 -0.9833
vn -0.1821 0.0000 -0.9833
vn -0.1820 0.0000 -0.9833
vn 0.1821 0.0000 -0.9833
vn 0.1822 0.0000 -0.9833
vn 0.1823 0.0000 -0.9832
vn 0.4955 0.0000 -0.8686
vn 0.4956 0.0000 -0.8686
vn 0.4956 0.0000 -0.8685
vn 0.7088 0.0000 -0.7054
vn 0.7087 0.0000 -0.7055
vn 0.8392 0.0000 -0.5439
vn 0.8391 0.0000 -0.5439
vn 0.0000 0.0000 1.0000
vn -0.9196 0.0000 -0.3928
vn -0.9788 0.0000 -0.2047
vn -0.9993 0.0000 0.0367
vn -0.9464 0.0000 0.3229
vn -0.9465 0.0000 0.3228
vn -0.9465 0.0000 0.3227
vn -0.7945 0.0000 0.6073
vn -0.7945 0.0000 0.6072
vn -0.7946 0.0000 0.6072
vn -0.5657 0.0000 0.8246
vn -0.5656 0.0000 0.8247
vn -0.5655 0.0000 0.8247
vn -0.3186 0.0000 0.9479
vn -0.3185 0.0000 0.9479
vn -0.3184 0.0000 0.9479
vn -0.0970 0.0000 0.9953
vn -0.0971 0.0000 0.9953
vn -0.8829 0.0000 -0.4696
vn -0.8829 0.0000 -0.4695
vn 0.0000 1.0000 -0.0002
vn 0.0000 1.0000 0.0001
vn 0.0000 1.0000 -0.0001
vn 0.0000 1.0000 0.0002
vn 0.0971 0.0000 0.9953
vn 0.3188 0.0000 0.9478
vn 0.5656 0.0000 0.8247
vn 0.7944 0.0000 0.6073
vn 0.9196 0.0000 -0.3928
vn -0.8391 0.0000 -0.5439
vn -0.7087 0.0000 -0.7055
vn -0.4956 0.0000 -0.8685
vn -0.1823 0.0000 -0.9832
vn 0.1820 0.0000 -0.9833
vn 0.4954 0.0000 -0.8687
vn 0.7089 0.0000 -0.7053
vn 0.8392 0.0000 -0.5438
vn -0.7944 0.0000 0.6073
vn -0.3187 0.0000 0.9479
vn -0.0969 0.0000 0.9953
usemtl pared3.006
s 1
f 8/1/1 16/2/1 24/3/1
f 40/4/1 48/5/1 56/6/1
usemtl piedra
f 90/7/1 91/8/1 83/9/1
f 93/10/2 82/11/3 92/12/3
f 94/13/4 75/14/5 74/15/6
f 95/16/7 76/17/8 75/14/9
f 96/18/10 77/19/11 76/17/11
f 97/20/12 78/21/13 77/19/14
f 98/22/15 79/23/15 78/21/16
f 99/24/17 80/25/17 79/23/17
f 100/26/18 81/27/19 80/25/19
f 101/28/20 82/11/20 81/27/21
f 96/18/22 95/16/22 100/26/22
f 91/8/23 112/29/23 111/30/24
f 90/7/25 113/31/25 112/29/26
f 89/32/27 114/33/28 113/31/29
f 88/34/30 115/35/31 114/33/32
f 87/36/33 116/37/34 115/35/35
f 86/38/36 117/39/37 116/37/38
f 85/40/39 118/41/39 117/39/40
f 84/42/41 93/10/41 118/41/42
f 94/13/43 73/43/43 102/44/43
f 65/45/44 109/46/44 66/47/44
f 66/47/45 108/48/45 67/49/45
f 108/48/46 68/50/46 67/49/46
f 107/51/47 69/52/48 68/50/49
f 106/53/50 70/54/51 69/52/52
f 105/55/53 71/56/54 70/54/55
f 104/57/56 72/58/57 71/56/58
f 103/59/59 73/43/59 72/58/60
f 110/60/61 91/8/62 111/30/62
usemtl pared3.006
f 32/61/1 1/62/1 4/63/1
f 1/62/1 2/64/1 4/63/1
f 2/64/1 3/65/1 4/63/1
f 4/63/1 5/66/1 6/67/1
f 6/67/1 7/68/1 8/1/1
f 8/1/1 9/69/1 10/70/1
f 10/70/1 11/71/1 12/72/1
f 12/72/1 13/73/1 14/74/1
f 14/74/1 15/75/1 12/72/1
f 15/75/1 16/2/1 12/72/1
f 16/2/1 17/76/1 20/77/1
f 17/76/1 18/78/1 20/77/1
f 18/78/1 19/79/63 20/77/1
f 20/77/1 21/80/64 22/81/1
f 22/81/1 23/82/1 24/3/1
f 24/3/1 25/83/1 26/84/1
f 26/84/1 27/85/1 24/3/1
f 27/85/1 28/86/1 24/3/1
f 28/86/1 29/87/1 30/88/1
f 30/88/1 31/89/1 28/86/1
f 31/89/1 32/61/1 28/86/1
f 4/63/1 6/67/1 32/61/1
f 6/67/1 8/1/1 32/61/1
f 8/1/1 10/70/1 16/2/1
f 10/70/1 12/72/1 16/2/1
f 20/77/1 22/81/1 16/2/1
f 22/81/1 24/3/1 16/2/1
f 24/3/1 28/86/1 32/61/1
f 32/61/1 8/1/1 24/3/1
f 64/90/1 33/91/1 36/92/1
f 33/91/1 34/93/64 36/92/1
f 34/93/64 35/94/1 36/92/1
f 36/92/1 37/95/64 38/96/1
f 38/96/1 39/97/1 40/4/1
f 40/4/1 41/98/1 44/99/1
f 41/98/1 42/100/1 44/99/1
f 42/100/1 43/101/65 44/99/1
f 44/99/1 45/102/1 46/103/1
f 46/103/1 47/104/1 48/5/1
f 48/5/1 49/105/66 50/106/1
f 50/106/1 51/107/63 52/108/1
f 52/108/1 53/109/1 56/6/1
f 53/109/1 54/110/1 56/6/1
f 54/110/1 55/111/1 56/6/1
f 56/6/1 57/112/1 58/113/1
f 58/113/1 59/114/65 60/115/1
f 60/115/1 61/116/66 62/117/65
f 62/117/65 63/118/1 60/115/1
f 63/118/1 64/90/1 60/115/1
f 36/92/1 38/96/1 64/90/1
f 38/96/1 40/4/1 64/90/1
f 44/99/1 46/103/1 40/4/1
f 46/103/1 48/5/1 40/4/1
f 48/5/1 50/106/1 56/6/1
f 50/106/1 52/108/1 56/6/1
f 56/6/1 58/113/1 60/115/1
f 56/6/1 60/115/1 64/90/1
f 64/90/1 40/4/1 56/6/1
usemtl piedra
f 91/8/1 65/45/1 82/11/1
f 65/45/1 66/47/1 73/43/1
f 82/11/1 65/45/1 74/15/1
f 66/47/1 67/49/1 72/58/1
f 67/49/1 68/50/1 71/56/1
f 72/58/1 67/49/1 71/56/1
f 68/50/1 69/52/1 70/54/1
f 70/54/1 71/56/1 68/50/1
f 72/58/1 73/43/1 66/47/1
f 73/43/1 74/15/1 65/45/1
f 74/15/1 75/14/1 81/27/1
f 75/14/1 76/17/1 80/25/1
f 76/17/1 77/19/1 79/23/1
f 77/19/1 78/21/1 79/23/1
f 79/23/1 80/25/1 76/17/1
f 80/25/1 81/27/1 75/14/1
f 81/27/1 82/11/1 74/15/1
f 82/11/1 83/9/1 91/8/1
f 83/9/1 84/42/1 90/7/1
f 84/42/1 85/40/1 90/7/1
f 85/40/1 86/38/1 89/32/1
f 90/7/1 85/40/1 89/32/1
f 86/38/1 87/36/1 88/34/1
f 88/34/1 89/32/1 86/38/1
f 93/10/2 83/9/2 82/11/3
f 94/13/4 95/16/67 75/14/5
f 95/16/7 96/18/68 76/17/8
f 96/18/10 97/20/69 77/19/11
f 97/20/12 98/22/70 78/21/13
f 98/22/15 99/24/15 79/23/15
f 99/24/17 100/26/17 80/25/17
f 100/26/18 101/28/18 81/27/19
f 101/28/20 92/12/71 82/11/20
f 94/13/22 102/44/22 110/60/22
f 102/44/22 103/59/22 109/46/22
f 103/59/22 104/57/22 108/48/22
f 104/57/22 105/55/22 107/51/22
f 105/55/22 106/53/22 107/51/22
f 107/51/22 108/48/22 104/57/22
f 108/48/22 109/46/22 103/59/22
f 109/46/22 110/60/22 102/44/22
f 110/60/22 111/30/22 92/12/22
f 94/13/22 101/28/22 95/16/22
f 111/30/22 112/29/22 118/41/22
f 112/29/22 113/31/22 117/39/22
f 113/31/22 114/33/22 117/39/22
f 114/33/22 115/35/22 116/37/22
f 117/39/22 114/33/22 116/37/22
f 117/39/22 118/41/22 112/29/22
f 118/41/22 93/10/22 111/30/22
f 93/10/22 92/12/22 111/30/22
f 92/12/22 101/28/22 94/13/22
f 110/60/22 92/12/22 94/13/22
f 101/28/22 100/26/22 95/16/22
f 100/26/22 99/24/22 96/18/22
f 99/24/22 98/22/22 97/20/22
f 97/20/22 96/18/22 99/24/22
f 91/8/23 90/7/72 112/29/23
f 90/7/25 89/32/73 113/31/25
f 89/32/27 88/34/74 114/33/28
f 88/34/30 87/36/75 115/35/31
f 87/36/33 86/38/76 116/37/34
f 86/38/36 85/40/77 117/39/37
f 85/40/39 84/42/78 118/41/39
f 84/42/41 83/9/79 93/10/41
f 94/13/43 74/15/43 73/43/43
f 65/45/44 110/60/44 109/46/44
f 66/47/45 109/46/45 108/48/45
f 108/48/46 107/51/46 68/50/46
f 107/51/47 106/53/47 69/52/48
f 106/53/50 105/55/80 70/54/51
f 105/55/53 104/57/53 71/56/54
f 104/57/56 103/59/81 72/58/57
f 103/59/59 102/44/82 73/43/59
f 110/60/61 65/45/61 91/8/62
